<?xml version="1.0" encoding="utf-8"?>
<!-- Generator: Adobe Illustrator 24.1.1, SVG Export Plug-In . SVG Version: 6.00 Build 0)  -->
<svg version="1.1" id="Layer_1" xmlns="http://www.w3.org/2000/svg" xmlns:xlink="http://www.w3.org/1999/xlink" x="0px" y="0px"
	 viewBox="0 0 429 433" style="enable-background:new 0 0 429 433;" xml:space="preserve">
<style type="text/css">
	.st0{fill:#FFFFFF;}
</style>
<g>
	<polygon class="st0" points="33.2,420.1 31.4,302.7 31.4,302.7 31.4,127.1 22.5,127.1 22.5,120.1 80.6,120.1 80.6,38.9 76.7,38.9 
		76.5,32.7 85.5,32.7 82.5,17.7 80.6,17.7 80.4,11.5 134.4,11.5 134.4,19.8 131.5,20 129.1,32.7 139.1,32.5 139.1,39.8 136.3,39.6 
		136.1,199.3 411.3,200 411.3,303.4 411.3,303.4 412.5,419.7 	"/>
	<polyline points="88.4,21.5 127.2,21.5 127.2,32.7 88.4,32.7 	"/>
	<rect x="110.4" y="259.3" width="38" height="85"/>
	<rect x="155.5" y="259.3" width="30.9" height="85"/>
	<rect x="192.3" y="259.3" width="30.7" height="85"/>
	<rect x="227.4" y="259.3" width="32" height="85"/>
	<rect x="264.2" y="259.3" width="29.4" height="85"/>
	<rect x="298.9" y="259.3" width="38" height="85"/>
	<rect x="70.2" y="351.6" width="305.8" height="67.5"/>
	<rect x="25.9" y="134" width="31.7" height="9.7"/>
	<rect x="25.9" y="155.2" width="31.7" height="10.4"/>
	<rect x="25.9" y="179.1" width="31.7" height="11.1"/>
	<rect x="79.8" y="361.8" class="st0" width="286.5" height="63.8"/>
</g>
</svg>
