<svg width="336" height="57" viewBox="0 0 336 57" fill="none" xmlns="http://www.w3.org/2000/svg">
<path fill-rule="evenodd" clip-rule="evenodd" d="M211.5 29C211.5 28.5359 211.684 28.0908 212.013 27.7626C212.341 27.4344 212.786 27.25 213.25 27.25H254.526L243.511 16.239C243.182 15.9104 242.998 15.4647 242.998 15C242.998 14.5353 243.182 14.0896 243.511 13.761C243.84 13.4324 244.285 13.2478 244.75 13.2478C245.215 13.2478 245.66 13.4324 245.989 13.761L259.989 27.761C260.152 27.9236 260.281 28.1167 260.369 28.3293C260.458 28.5419 260.503 28.7698 260.503 29C260.503 29.2302 260.458 29.4581 260.369 29.6707C260.281 29.8833 260.152 30.0765 259.989 30.239L245.989 44.239C245.66 44.5676 245.215 44.7522 244.75 44.7522C244.285 44.7522 243.84 44.5676 243.511 44.239C243.182 43.9104 242.998 43.4647 242.998 43C242.998 42.5353 243.182 42.0896 243.511 41.761L254.526 30.75H213.25C212.786 30.75 212.341 30.5656 212.013 30.2374C211.684 29.9093 211.5 29.4641 211.5 29Z" fill="white"/>
<path d="M96 27.9999H77.3334M96 46.6666V27.9999V46.6666ZM96 27.9999V9.33325V27.9999ZM96 27.9999H114.667H96Z" stroke="white" stroke-width="3" stroke-linecap="round"/>
<path d="M146.667 4.66675H151.333V11.6667H146.667V4.66675ZM156 4.66675H160.667V11.6667H156V4.66675ZM165.333 4.66675H170V11.6667H165.333V4.66675ZM179.333 21.0001H174.667V18.6667C174.667 18.0479 174.421 17.4544 173.983 17.0168C173.546 16.5792 172.952 16.3334 172.333 16.3334H144.333C143.714 16.3334 143.121 16.5792 142.683 17.0168C142.246 17.4544 142 18.0479 142 18.6667V42.0001C142 43.8566 142.737 45.6371 144.05 46.9498C145.363 48.2626 147.143 49.0001 149 49.0001H167.667C169.523 49.0001 171.304 48.2626 172.616 46.9498C173.929 45.6371 174.667 43.8566 174.667 42.0001H179.333C181.907 42.0001 184 39.9071 184 37.3334V25.6667C184 23.0931 181.907 21.0001 179.333 21.0001ZM174.667 37.3334V25.6667H179.333L179.338 37.3334H174.667Z" fill="#D27C2C"/>
<path d="M28 49.9999C40.8866 49.9999 51.3333 39.5532 51.3333 26.6666C51.3333 13.7799 40.8866 3.33325 28 3.33325C15.1133 3.33325 4.66663 13.7799 4.66663 26.6666C4.66663 39.5532 15.1133 49.9999 28 49.9999Z" fill="#FFF59D"/>
<path d="M43.1666 26.6667C43.1666 17.6833 35.4666 10.5667 26.25 11.6167C19.25 12.4333 13.65 18.0333 12.95 25.0333C12.3666 30.4 14.5833 35.1833 18.3166 38.2167C19.95 39.6167 21 41.6 21 43.8167V44.1667H34.9999V44.05C34.9999 41.95 35.9333 39.85 37.5666 38.45C40.9499 35.65 43.1666 31.45 43.1666 26.6667Z" fill="#FBC02D"/>
<path d="M35.7 24.5667L32.2 22.2333C31.85 22 31.2666 22 30.9166 22.2333L28 24.1L25.2 22.2333C24.85 22 24.2666 22 23.9166 22.2333L20.4166 24.5667C20.1833 24.8 19.95 25.0333 19.95 25.3833C19.95 25.7333 19.9499 26.0833 20.1833 26.3167L24.6166 31.8V44.1667H26.95V31.3333C26.95 31.1 26.8333 30.8667 26.7166 30.6333L22.8666 25.85L24.6166 24.6833L27.4166 26.55C27.7666 26.7833 28.35 26.7833 28.7 26.55L31.5 24.6833L33.25 25.85L29.4 30.6333C29.2833 30.8667 29.1666 31.1 29.1666 31.3333V44.1667H31.5V31.8L35.9333 26.3167C36.1666 26.0833 36.2833 25.7333 36.1666 25.3833C36.05 25.0333 35.9333 24.6833 35.7 24.5667Z" fill="#FFF59D"/>
<path d="M28 55.8333C29.933 55.8333 31.5 54.2662 31.5 52.3333C31.5 50.4003 29.933 48.8333 28 48.8333C26.067 48.8333 24.5 50.4003 24.5 52.3333C24.5 54.2662 26.067 55.8333 28 55.8333Z" fill="#5C6BC0"/>
<path d="M30.3333 53.5H25.6667C23.1 53.5 21 51.4 21 48.8333V43H35V48.8333C35 51.4 32.9 53.5 30.3333 53.5Z" fill="#9FA8DA"/>
<path d="M35 48.8335L21.4667 50.7002C21.8167 51.5168 22.5167 52.3335 23.3333 52.8002L34.3 51.2835C34.7667 50.5835 35 49.7668 35 48.8335Z" fill="#5C6BC0"/>
<path d="M21 46.1501V48.4834L35 46.5001V44.1667L21 46.1501Z" fill="#5C6BC0"/>
<g clip-path="url(#clip0_1_225)">
<path d="M296.013 42.3001C295.328 42.3011 294.666 42.0499 294.154 41.5945L279.986 29.0001L294.941 15.7057C295.498 15.2288 296.22 14.9898 296.952 15.0399C297.684 15.0901 298.367 15.4254 298.854 15.9738C299.341 16.5223 299.594 17.24 299.557 17.9727C299.521 18.7053 299.198 19.3944 298.659 19.8917L288.414 29.0001L297.872 37.4057C298.297 37.7827 298.597 38.2801 298.733 38.8318C298.869 39.3835 298.833 39.9633 298.632 40.4944C298.43 41.0255 298.071 41.4826 297.604 41.8051C297.136 42.1276 296.581 42.3003 296.013 42.3001ZM321.059 42.2945L336.014 29.0001L321.846 16.4057C321.291 15.9126 320.563 15.6602 319.821 15.7041C319.08 15.7479 318.387 16.0844 317.894 16.6395C317.401 17.1946 317.148 17.9228 317.192 18.664C317.236 19.4052 317.572 20.0986 318.128 20.5917L327.586 29.0001L317.341 38.1057C316.785 38.5988 316.448 39.2923 316.404 40.0338C316.36 40.7752 316.612 41.5038 317.106 42.0593C317.599 42.6148 318.292 42.9516 319.034 42.9957C319.775 43.0398 320.504 42.7876 321.059 42.2945ZM307.961 46.2621L313.561 12.6621C313.632 12.2949 313.63 11.917 313.553 11.5509C313.476 11.1847 313.326 10.8377 313.113 10.5303C312.9 10.2229 312.627 9.96133 312.311 9.76107C311.995 9.56081 311.642 9.42591 311.273 9.36434C310.904 9.30278 310.527 9.31579 310.163 9.40261C309.799 9.48944 309.456 9.64831 309.155 9.86985C308.853 10.0914 308.599 10.3711 308.407 10.6925C308.216 11.0138 308.091 11.3703 308.039 11.7409L302.439 45.3409C302.368 45.7081 302.37 46.086 302.447 46.4521C302.524 46.8182 302.673 47.1653 302.887 47.4727C303.1 47.7801 303.373 48.0417 303.689 48.2419C304.005 48.4422 304.358 48.5771 304.727 48.6387C305.096 48.7002 305.473 48.6872 305.837 48.6004C306.201 48.5136 306.544 48.3547 306.845 48.1331C307.147 47.9116 307.401 47.6319 307.592 47.3105C307.784 46.9892 307.909 46.6327 307.961 46.2621Z" fill="#9747FF"/>
</g>
<defs>
<clipPath id="clip0_1_225">
<rect width="56" height="56" fill="white" transform="translate(280 1)"/>
</clipPath>
</defs>
</svg>
